<?xml version="1.0" encoding="iso-8859-1"?>
<!-- Generator: Adobe Illustrator 19.0.0, SVG Export Plug-In . SVG Version: 6.00 Build 0)  -->
<svg version="1.1" id="Layer_1" xmlns="http://www.w3.org/2000/svg" xmlns:xlink="http://www.w3.org/1999/xlink" x="0px" y="0px"
	 viewBox="0 0 512 512" style="enable-background:new 0 0 512 512;" xml:space="preserve">
<path style="fill:#7FCC29;" d="M240,271c-8.284,0-15-6.716-15-15c0-31.914-10.011-61.975-28.949-86.933
	c-4.053-5.341-4.069-12.724-0.039-18.083C228.967,107.163,281.673,81,337,81h49V48c0-5.82,3.367-11.115,8.638-13.584
	c5.273-2.469,11.494-1.665,15.965,2.061l96,80c3.42,2.85,5.397,7.072,5.397,11.523c0,4.451-1.978,8.673-5.397,11.523l-96,80
	c-4.471,3.725-10.693,4.529-15.965,2.061C389.367,219.115,386,213.821,386,208v-33h-49c-44.448,0-82,37.093-82,81
	C255,264.284,248.284,271,240,271z"/>
<path style="fill:#87D92B;" d="M80,431H47c-25.916,0-47-21.084-47-47s21.084-47,47-47h33c44.663,0,81-36.336,81-81
	c0-8.284,6.716-15,15-15s15,6.716,15,15c0,31.914,10.011,61.975,28.949,86.933c4.053,5.341,4.069,12.724,0.039,18.083
	C187.033,404.838,134.701,431,80,431z"/>
<path style="fill:#45C1F1;" d="M400.997,479c-2.158,0-4.329-0.465-6.359-1.416C389.367,475.115,386,469.821,386,464v-33h-49
	c-55.327,0-108.033-26.163-140.988-69.984C173.12,330.849,161,294.517,161,256c0-44.664-36.336-81-81-81H47
	c-25.916,0-47-21.084-47-47s21.084-47,47-47h33c54.701,0,107.033,26.163,139.988,69.984C242.88,181.151,255,217.483,255,256
	c0,43.907,37.552,81,82,81h49v-33c0-5.82,3.367-11.115,8.638-13.584c5.273-2.469,11.494-1.665,15.965,2.061l96,80
	c3.42,2.85,5.397,7.072,5.397,11.523s-1.978,8.673-5.397,11.523l-96,80C407.854,477.814,404.442,479,400.997,479z"/>
<path style="fill:#44A4EC;" d="M196.012,361.016C228.967,404.838,281.673,431,337,431h49v33c0,5.82,3.367,11.115,8.638,13.584
	c2.03,0.951,4.201,1.416,6.359,1.416c3.445,0,6.856-1.186,9.605-3.477l96-80c3.42-2.85,5.397-7.072,5.397-11.523
	s-1.978-8.673-5.397-11.523l-96-80c-4.471-3.726-10.691-4.53-15.965-2.061C389.367,292.885,386,298.18,386,304v33h-49
	c-44.448,0-82-37.093-82-81h-94C161,294.517,173.12,330.849,196.012,361.016z"/>
<g>
</g>
<g>
</g>
<g>
</g>
<g>
</g>
<g>
</g>
<g>
</g>
<g>
</g>
<g>
</g>
<g>
</g>
<g>
</g>
<g>
</g>
<g>
</g>
<g>
</g>
<g>
</g>
<g>
</g>
</svg>
