<?xml version="1.0" encoding="iso-8859-1"?>
<!-- Generator: Adobe Illustrator 18.0.0, SVG Export Plug-In . SVG Version: 6.00 Build 0)  -->
<!DOCTYPE svg PUBLIC "-//W3C//DTD SVG 1.1//EN" "http://www.w3.org/Graphics/SVG/1.1/DTD/svg11.dtd">
<svg version="1.1" id="Capa_1" xmlns="http://www.w3.org/2000/svg" xmlns:xlink="http://www.w3.org/1999/xlink" x="0px" y="0px"
	 viewBox="0 0 251.627 251.627" style="enable-background:new 0 0 251.627 251.627;" xml:space="preserve">
<g>
	<path d="M129.779,62.832c-2.762,0-5,2.239-5,5v18.205h-2.524V67.832c0-2.761-2.238-5-5-5s-5,2.239-5,5v18.205h-2.524V67.832
		c0-2.761-2.238-5-5-5s-5,2.239-5,5v23.205c0,2.761,2.238,5,5,5h7.524v31.645c0,2.761,2.238,5,5,5s5-2.239,5-5V96.037h7.524
		c2.762,0,5-2.239,5-5V67.832C134.779,65.07,132.541,62.832,129.779,62.832z"/>
	<path d="M146.897,62.832c-2.762,0-5,2.239-5,5v59.85c0,2.761,2.238,5,5,5s5-2.239,5-5v-59.85
		C151.897,65.07,149.659,62.832,146.897,62.832z"/>
	<path d="M125.814,29.469c-37.654,0-68.288,30.634-68.288,68.288s30.634,68.288,68.288,68.288c37.653,0,68.287-30.634,68.287-68.288
		S163.467,29.469,125.814,29.469z M125.814,156.044c-32.141,0-58.288-26.148-58.288-58.288s26.147-58.288,58.288-58.288
		c32.14,0,58.287,26.148,58.287,58.288S157.954,156.044,125.814,156.044z"/>
	<path d="M125.814,0C70.087,0,24.75,45.336,24.75,101.063c0,54.208,91.91,144.608,95.823,148.43c1.457,1.423,3.349,2.135,5.24,2.135
		s3.784-0.711,5.241-2.135c3.912-3.822,95.821-94.221,95.821-148.43C226.876,45.336,181.54,0,125.814,0z M125.813,233.533
		C97.634,204.899,39.75,138.36,39.75,101.063C39.75,53.607,78.359,15,125.814,15s86.063,38.607,86.063,86.063
		C211.876,138.336,153.99,204.892,125.813,233.533z"/>
</g>
<g>
</g>
<g>
</g>
<g>
</g>
<g>
</g>
<g>
</g>
<g>
</g>
<g>
</g>
<g>
</g>
<g>
</g>
<g>
</g>
<g>
</g>
<g>
</g>
<g>
</g>
<g>
</g>
<g>
</g>
</svg>
